<?xml version="1.0" encoding="UTF-8"?>
<!DOCTYPE svg PUBLIC "-//W3C//DTD SVG 1.1//EN" "http://www.w3.org/Graphics/SVG/1.1/DTD/svg11.dtd">
<svg xmlns="http://www.w3.org/2000/svg" version="1.1" width="103px" height="210px" style="shape-rendering:geometricPrecision; text-rendering:geometricPrecision; image-rendering:optimizeQuality; fill-rule:evenodd; clip-rule:evenodd" xmlns:xlink="http://www.w3.org/1999/xlink">
<g><path style="opacity:0.97" fill="#7d012c" d="M 64.5,129.5 C 66.4325,126.634 68.0991,123.634 69.5,120.5C 71.7271,119.599 72.7271,117.933 72.5,115.5C 61.2628,113.381 49.9294,111.881 38.5,111C 36.8934,109.951 36.2267,108.451 36.5,106.5C 38.4325,103.634 40.0991,100.634 41.5,97.5C 44.1897,95.7407 44.8564,93.4074 43.5,90.5C 36.8473,87.8047 30.014,85.8047 23,84.5C 22.3333,64.5 22.3333,44.5 23,24.5C 24.3876,23.4464 25.8876,23.2797 27.5,24C 45.0856,35.3757 62.5856,46.8757 80,58.5C 80.6667,82.5 80.6667,106.5 80,130.5C 74.6987,131.438 69.5321,131.105 64.5,129.5 Z M 64.5,64.5 C 66.0955,66.8318 67.2622,69.4985 68,72.5C 70.087,73.7938 72.2537,74.9605 74.5,76C 72.1667,76.3333 69.8333,76.6667 67.5,77C 66.9103,78.5095 66.2436,80.0095 65.5,81.5C 65.1147,76.2173 62.4481,72.7173 57.5,71C 62.8977,71.9205 65.231,69.7538 64.5,64.5 Z"/></g>
<g><path style="opacity:0.959" fill="#fe0057" d="M 41.5,97.5 C 40.0991,100.634 38.4325,103.634 36.5,106.5C 34.4848,108.676 32.8181,111.176 31.5,114C 32.1667,114.333 32.8333,114.667 33.5,115C 44.4519,116.425 55.4519,117.425 66.5,118C 68.1193,118.236 69.1193,119.069 69.5,120.5C 68.0991,123.634 66.4325,126.634 64.5,129.5C 61.6482,130.699 60.8149,132.366 62,134.5C 68.0513,135.422 74.0513,136.422 80,137.5C 80.6667,142.5 80.6667,147.5 80,152.5C 62.8333,163.667 45.6667,174.833 28.5,186C 26.5273,186.495 24.5273,186.662 22.5,186.5C 22.5,155.167 22.5,123.833 22.5,92.5C 28.5652,92.2614 34.5652,92.7614 40.5,94C 41.3366,95.0113 41.67,96.1779 41.5,97.5 Z"/></g>
</svg>
